<?xml version="1.0" encoding="utf-8"?>
<!-- Generator: Adobe Illustrator 22.1.0, SVG Export Plug-In . SVG Version: 6.00 Build 0)  -->
<svg version="1.1" id="Icon_Name" xmlns="http://www.w3.org/2000/svg" xmlns:xlink="http://www.w3.org/1999/xlink" x="0px" y="0px"
	 viewBox="0 0 24 24" style="enable-background:new 0 0 24 24;" xml:space="preserve">
<style type="text/css">
	.st0{fill:#FFFFFF;}
	.st1{fill:url(#SVGID_1_);}
</style>
<g>
	<path class="st0" d="M1,9.2l4.1,3H2.7l-1.6-1C1,11.1,1,9.2,1,9.2z M2.7,12.2h2.4l-4.1,3v-1.9L2.7,12.2z"/>
	<path class="st0" d="M7.8,17.2c0,0-0.1-0.1-0.5-0.3c-0.4-0.1-0.7-0.4-1-0.7c-0.3-0.3-0.4-0.7-0.5-1.2l1.5-0.7
		c0.1,0.4,0.3,0.7,0.5,1c0.1,0.1,0.4,0.3,0.8,0.3s0.8-0.1,1.1-0.3c0.3-0.1,0.4-0.4,0.4-0.9v-0.4c0-0.3,0-0.4-0.1-0.7
		c-0.1-0.1-0.3-0.3-0.5-0.4c-0.3-0.1-0.7-0.1-1-0.3l0,0l0,0H8.4c-0.5-0.1-1-0.3-1.4-0.4c-0.3-0.1-0.7-0.4-0.8-0.9s-0.3-1-0.3-1.6
		V9.2c0-0.6,0.1-1,0.4-1.5s0.5-0.7,1-1c0.4-0.1,0.8-0.3,1.5-0.3c0.4,0,0.8,0.1,1.2,0.3c0.4,0.1,0.7,0.4,1,0.7
		c0.3,0.3,0.4,0.7,0.5,1.2l-1.4,0.7c-0.1-0.4-0.4-0.7-0.5-1C9.5,8,9,8,8.8,8C8.2,8,8,8.2,7.7,8.3C7.4,8.5,7.4,8.8,7.4,9.2v0.3
		c0,0.3,0.1,0.6,0.3,0.7c0.1,0.1,0.3,0.3,0.5,0.4c0.1,0,0.4,0.1,0.8,0.3l0,0l0,0l0,0l0,0c0.5,0.1,1,0.3,1.2,0.6
		c0.3,0.1,0.5,0.4,0.8,0.9c0.3,0.3,0.3,0.9,0.3,1.5v0.4c0,0.6-0.1,1-0.4,1.5c-0.3,0.4-0.5,0.7-1,1c-0.4,0.1-1,0.3-1.6,0.3
		C8.1,17.2,7.8,17.2,7.8,17.2z"/>
	<path class="st0" d="M13.8,19h-1.4l3.3-13.7h1.4L13.8,19z"/>
	<path class="st0" d="M18.3,6.6h1.5V17h-1.5V6.6z M19,15.4h4.5V17H19V15.4z"/>
</g>
<path class="st0" d="M-19.3,20h-9.4c-1.8,0-3.3-1.5-3.3-3.3V7.3c0-1.8,1.5-3.3,3.3-3.3h9.4c1.8,0,3.3,1.5,3.3,3.3v9.3
	C-16,18.5-17.5,20-19.3,20z"/>
<linearGradient id="SVGID_1_" gradientUnits="userSpaceOnUse" x1="-31.6266" y1="11.9" x2="-16.5682" y2="11.9" gradientTransform="matrix(1 0 0 -1 0 24)">
	<stop  offset="0" style="stop-color:#2484C6"/>
	<stop  offset="1" style="stop-color:#2484C6;stop-opacity:0.6"/>
</linearGradient>
<ellipse class="st1" cx="-24.1" cy="12.1" rx="7.5" ry="4.8"/>
<g>
	<path class="st0" d="M-29.7,10.5l2,1.4h-1.2l-0.8-0.5V10.5z M-28.9,11.8h1.2l-2,1.4v-0.9L-28.9,11.8z"/>
	<path class="st0" d="M-26.3,14.1c0,0-0.1,0-0.3-0.1c-0.2-0.1-0.4-0.2-0.5-0.3s-0.2-0.3-0.3-0.6l0.7-0.3c0.1,0.2,0.2,0.4,0.3,0.5
		c0.1,0.1,0.3,0.2,0.5,0.2s0.4,0,0.5-0.1s0.2-0.2,0.2-0.4v-0.2c0-0.1,0-0.2-0.1-0.3s-0.1-0.1-0.3-0.2s-0.2-0.1-0.4-0.1l0,0l0,0l0,0
		c-0.3-0.1-0.5-0.1-0.6-0.2c-0.2-0.1-0.3-0.2-0.4-0.4s-0.2-0.4-0.2-0.7v-0.1c0-0.3,0.1-0.5,0.2-0.7s0.3-0.3,0.5-0.4
		c0.2-0.1,0.5-0.1,0.8-0.1c0.2,0,0.4,0,0.6,0.1s0.3,0.2,0.4,0.3s0.2,0.3,0.3,0.5l-0.7,0.3c-0.1-0.2-0.2-0.3-0.3-0.4
		c-0.1-0.1-0.2-0.1-0.4-0.1c-0.2,0-0.4,0-0.5,0.1s-0.2,0.2-0.2,0.4v0.1c0,0.1,0,0.2,0.1,0.3s0.2,0.1,0.3,0.2c0.1,0,0.3,0.1,0.4,0.1
		l0,0l0,0l0,0l0,0c0.2,0.1,0.4,0.2,0.6,0.2c0.2,0.1,0.3,0.2,0.4,0.4s0.2,0.4,0.2,0.7V13c0,0.3-0.1,0.5-0.2,0.7s-0.3,0.3-0.5,0.4
		c-0.2,0.1-0.5,0.1-0.8,0.1C-26.2,14.1-26.3,14.1-26.3,14.1z"/>
	<path class="st0" d="M-23.2,14.9h-0.7l1.6-6.2h0.7L-23.2,14.9z"/>
	<path class="st0" d="M-20.9,9.3h0.7V14h-0.7V9.3z M-20.6,13.3h2.2V14h-2.2V13.3z"/>
</g>
</svg>
