<?xml version="1.0" encoding="utf-8"?>
<!-- Generator: Adobe Illustrator 22.1.0, SVG Export Plug-In . SVG Version: 6.00 Build 0)  -->
<svg version="1.1" id="Icon_Name" xmlns="http://www.w3.org/2000/svg" xmlns:xlink="http://www.w3.org/1999/xlink" x="0px" y="0px"
	 viewBox="0 0 24 24" style="enable-background:new 0 0 24 24;" xml:space="preserve">
<style type="text/css">
	.st0{fill:#FFFFFF;}
	.st1{fill:url(#SVGID_1_);}
	.st2{fill:url(#SVGID_2_);}
</style>
<path class="st0" d="M19,24.1H5c-2.8,0-5-2.3-5-5v-14c0-2.8,2.3-5,5-5h14c2.8,0,5,2.3,5,5v14C24,21.8,21.8,24.1,19,24.1z"/>
<linearGradient id="SVGID_1_" gradientUnits="userSpaceOnUse" x1="0.5833" y1="12.1667" x2="23.125" y2="12.1667">
	<stop  offset="0" style="stop-color:#2484C6"/>
	<stop  offset="1" style="stop-color:#2484C6;stop-opacity:0.6"/>
</linearGradient>
<ellipse class="st1" cx="11.9" cy="12.2" rx="11.3" ry="7.2"/>
<g>
	<path class="st0" d="M3.4,9.8l3,2H4.6l-1.2-0.7V9.8z M4.6,11.8h1.8l-3,2v-1.3L4.6,11.8z"/>
	<path class="st0" d="M8.4,15.2c0,0-0.1-0.1-0.4-0.2c-0.3-0.1-0.5-0.3-0.7-0.5s-0.3-0.5-0.4-0.8l1.1-0.5c0.1,0.3,0.2,0.5,0.4,0.7
		C8.5,14,8.7,14.1,9,14.1c0.3,0,0.6-0.1,0.8-0.2c0.2-0.1,0.3-0.3,0.3-0.6v-0.3c0-0.2,0-0.3-0.1-0.5c-0.1-0.1-0.2-0.2-0.4-0.3
		S9.1,12.1,8.9,12c0,0,0,0,0,0c0,0,0,0,0,0l-0.1,0c-0.4-0.1-0.7-0.2-1-0.3c-0.2-0.1-0.5-0.3-0.6-0.6S7,10.4,7,10V9.8
		c0-0.4,0.1-0.7,0.3-1s0.4-0.5,0.7-0.7C8.3,8,8.6,7.9,9.1,7.9C9.4,7.9,9.7,8,10,8.1c0.3,0.1,0.5,0.3,0.7,0.5s0.3,0.5,0.4,0.8l-1,0.5
		C10,9.6,9.8,9.4,9.7,9.2S9.3,9,9.1,9C8.7,9,8.5,9.1,8.3,9.2C8.1,9.3,8.1,9.5,8.1,9.8V10c0,0.2,0.1,0.4,0.2,0.5s0.2,0.2,0.4,0.3
		C8.8,10.8,9,10.9,9.3,11c0,0,0,0,0,0s0,0,0,0c0,0,0,0,0,0s0,0,0,0c0.4,0.1,0.7,0.2,0.9,0.4c0.2,0.1,0.4,0.3,0.6,0.6
		c0.2,0.2,0.2,0.6,0.2,1v0.3c0,0.4-0.1,0.7-0.3,1c-0.2,0.3-0.4,0.5-0.7,0.7c-0.3,0.1-0.7,0.2-1.2,0.2C8.6,15.2,8.4,15.2,8.4,15.2z"
		/>
	<path class="st0" d="M12.8,16.4h-1l2.4-9.3h1L12.8,16.4z"/>
	<path class="st0" d="M16.1,8h1.1v7.1h-1.1V8z M16.6,14h3.3v1.1h-3.3V14z"/>
</g>
<path class="st0" d="M-19.3,20h-9.4c-1.8,0-3.3-1.5-3.3-3.3V7.3c0-1.8,1.5-3.3,3.3-3.3h9.4c1.8,0,3.3,1.5,3.3,3.3v9.3
	C-16,18.5-17.5,20-19.3,20z"/>
<linearGradient id="SVGID_2_" gradientUnits="userSpaceOnUse" x1="-31.6266" y1="12.0556" x2="-16.5682" y2="12.0556">
	<stop  offset="0" style="stop-color:#2484C6"/>
	<stop  offset="1" style="stop-color:#2484C6;stop-opacity:0.6"/>
</linearGradient>
<ellipse class="st2" cx="-24.1" cy="12.1" rx="7.5" ry="4.8"/>
<g>
	<path class="st0" d="M-29.7,10.5l2,1.4h-1.2l-0.8-0.5V10.5z M-28.9,11.8h1.2l-2,1.4v-0.9L-28.9,11.8z"/>
	<path class="st0" d="M-26.3,14.1c0,0-0.1,0-0.3-0.1c-0.2-0.1-0.4-0.2-0.5-0.3s-0.2-0.3-0.3-0.6l0.7-0.3c0.1,0.2,0.2,0.4,0.3,0.5
		c0.1,0.1,0.3,0.2,0.5,0.2c0.2,0,0.4,0,0.5-0.1c0.1-0.1,0.2-0.2,0.2-0.4v-0.2c0-0.1,0-0.2-0.1-0.3c-0.1-0.1-0.1-0.1-0.3-0.2
		s-0.2-0.1-0.4-0.1c0,0,0,0,0,0s0,0,0,0l0,0c-0.3-0.1-0.5-0.1-0.6-0.2c-0.2-0.1-0.3-0.2-0.4-0.4s-0.2-0.4-0.2-0.7v-0.1
		c0-0.3,0.1-0.5,0.2-0.7c0.1-0.2,0.3-0.3,0.5-0.4c0.2-0.1,0.5-0.1,0.8-0.1c0.2,0,0.4,0,0.6,0.1s0.3,0.2,0.4,0.3
		c0.1,0.1,0.2,0.3,0.3,0.5l-0.7,0.3c-0.1-0.2-0.2-0.3-0.3-0.4c-0.1-0.1-0.2-0.1-0.4-0.1c-0.2,0-0.4,0-0.5,0.1
		c-0.1,0.1-0.2,0.2-0.2,0.4v0.1c0,0.1,0,0.2,0.1,0.3c0.1,0.1,0.2,0.1,0.3,0.2c0.1,0,0.3,0.1,0.4,0.1c0,0,0,0,0,0c0,0,0,0,0,0
		c0,0,0,0,0,0c0,0,0,0,0,0c0.2,0.1,0.4,0.2,0.6,0.2c0.2,0.1,0.3,0.2,0.4,0.4c0.1,0.2,0.2,0.4,0.2,0.7v0.2c0,0.3-0.1,0.5-0.2,0.7
		c-0.1,0.2-0.3,0.3-0.5,0.4c-0.2,0.1-0.5,0.1-0.8,0.1C-26.2,14.1-26.3,14.1-26.3,14.1z"/>
	<path class="st0" d="M-23.2,14.9h-0.7l1.6-6.2h0.7L-23.2,14.9z"/>
	<path class="st0" d="M-20.9,9.3h0.7V14h-0.7V9.3z M-20.6,13.3h2.2V14h-2.2V13.3z"/>
</g>
</svg>
